<svg width="63" height="73" viewBox="0 0 63 73" fill="none" xmlns="http://www.w3.org/2000/svg">
<mask id="mask0_414_92" style="mask-type:alpha" maskUnits="userSpaceOnUse" x="9" y="0" width="44" height="55">
<path d="M52.0711 0.420898H9.27747V54.5792H52.0711V0.420898Z" fill="#141414"/>
</mask>
<g mask="url(#mask0_414_92)">
<path d="M52.0711 0.420898H9.27747V54.5792H52.0711V0.420898Z" fill="black"/>
<path d="M44.6437 1.34391C47.4914 1.12547 50.3252 0.753477 53.1328 0.229565L53.1305 1.5663L28.8755 49.8037L41.8004 49.7343C48.306 49.9436 51.4541 45.3272 51.3764 39.2557H52.1058V55C49.2132 54.1375 46.2162 53.6749 43.1982 53.625L16.7145 53.6561C13.8668 53.8745 11.0329 54.2465 8.22534 54.7704V53.4337L32.4827 5.19152L19.5565 5.26087C13.0522 5.05641 9.89925 9.67283 9.98056 15.7443H9.25002V0C12.1437 0.862845 15.142 1.32547 18.1612 1.375L44.6437 1.34391Z" fill="#DDE2D6"/>
</g>
<path d="M6.24292 69.3848V70H1.81909V69.3848H6.24292ZM2.03003 61.4688V70H1.30933V61.4688H2.03003ZM11.2761 68.5352V63.6602H11.9792V70H11.3054L11.2761 68.5352ZM11.405 67.3633L11.7683 67.3516C11.7683 67.75 11.7214 68.1172 11.6277 68.4531C11.5339 68.7891 11.3875 69.082 11.1882 69.332C10.989 69.582 10.7312 69.7754 10.4148 69.9121C10.0984 70.0488 9.71753 70.1172 9.27222 70.1172C8.96362 70.1172 8.68042 70.0742 8.42261 69.9883C8.1687 69.8984 7.94995 69.7578 7.76636 69.5664C7.58276 69.375 7.44019 69.127 7.33862 68.8223C7.24097 68.5176 7.19214 68.1484 7.19214 67.7148V63.6602H7.8894V67.7266C7.8894 68.0664 7.92651 68.3496 8.00073 68.5762C8.07886 68.8027 8.18433 68.9844 8.31714 69.1211C8.45386 69.2578 8.61011 69.3555 8.78589 69.4141C8.96167 69.4727 9.15112 69.502 9.35425 69.502C9.86987 69.502 10.2761 69.4023 10.573 69.2031C10.8738 69.0039 11.0867 68.7422 11.2117 68.418C11.3406 68.0898 11.405 67.7383 11.405 67.3633ZM16.1511 69.5137C16.448 69.5137 16.7253 69.459 16.9832 69.3496C17.2449 69.2363 17.4597 69.0703 17.6277 68.8516C17.7996 68.6289 17.8972 68.3574 17.9207 68.0371H18.5886C18.5691 68.4395 18.446 68.7988 18.2195 69.1152C17.9968 69.4277 17.7039 69.6738 17.3406 69.8535C16.9812 70.0293 16.5847 70.1172 16.1511 70.1172C15.7097 70.1172 15.3191 70.0371 14.9792 69.877C14.6433 69.7168 14.3621 69.4941 14.1355 69.209C13.9089 68.9199 13.7371 68.584 13.6199 68.2012C13.5066 67.8145 13.45 67.3984 13.45 66.9531V66.707C13.45 66.2617 13.5066 65.8477 13.6199 65.4648C13.7371 65.0781 13.9089 64.7422 14.1355 64.457C14.3621 64.168 14.6433 63.9434 14.9792 63.7832C15.3152 63.623 15.7039 63.543 16.1453 63.543C16.5984 63.543 17.0046 63.6348 17.364 63.8184C17.7273 64.002 18.0164 64.2617 18.2312 64.5977C18.45 64.9336 18.5691 65.332 18.5886 65.793H17.9207C17.9011 65.4531 17.8113 65.1602 17.6511 64.9141C17.491 64.668 17.28 64.4785 17.0183 64.3457C16.7566 64.2129 16.4656 64.1465 16.1453 64.1465C15.7859 64.1465 15.4792 64.2168 15.2253 64.3574C14.9714 64.4941 14.7644 64.6836 14.6042 64.9258C14.448 65.1641 14.3328 65.4375 14.2585 65.7461C14.1843 66.0508 14.1472 66.3711 14.1472 66.707V66.9531C14.1472 67.293 14.1824 67.6172 14.2527 67.9258C14.3269 68.2305 14.4421 68.502 14.5984 68.7402C14.7585 68.9785 14.9656 69.168 15.2195 69.3086C15.4773 69.4453 15.7878 69.5137 16.1511 69.5137ZM23.8562 68.8633V65.5938C23.8562 65.293 23.7937 65.0332 23.6687 64.8145C23.5437 64.5957 23.3601 64.4277 23.1179 64.3105C22.8757 64.1934 22.5769 64.1348 22.2214 64.1348C21.8933 64.1348 21.6003 64.1934 21.3425 64.3105C21.0886 64.4238 20.8875 64.5781 20.739 64.7734C20.5945 64.9648 20.5222 65.1777 20.5222 65.4121L19.8191 65.4062C19.8191 65.168 19.8777 64.9375 19.9949 64.7148C20.1121 64.4922 20.2781 64.293 20.4929 64.1172C20.7078 63.9414 20.9636 63.8027 21.2605 63.7012C21.5613 63.5957 21.8914 63.543 22.2507 63.543C22.7039 63.543 23.1023 63.6191 23.446 63.7715C23.7937 63.9238 24.0652 64.1523 24.2605 64.457C24.4558 64.7617 24.5535 65.1445 24.5535 65.6055V68.6699C24.5535 68.8887 24.5691 69.1152 24.6003 69.3496C24.6355 69.584 24.6843 69.7773 24.7468 69.9297V70H24.0027C23.9558 69.8594 23.9187 69.6836 23.8914 69.4727C23.8679 69.2578 23.8562 69.0547 23.8562 68.8633ZM24.0203 66.3086L24.032 66.8477H22.655C22.2957 66.8477 21.9734 66.8809 21.6882 66.9473C21.407 67.0098 21.1687 67.1035 20.9734 67.2285C20.7781 67.3496 20.6277 67.4961 20.5222 67.668C20.4207 67.8398 20.3699 68.0352 20.3699 68.2539C20.3699 68.4805 20.4265 68.6875 20.5398 68.875C20.657 69.0625 20.821 69.2129 21.032 69.3262C21.2468 69.4355 21.5007 69.4902 21.7937 69.4902C22.1843 69.4902 22.5281 69.418 22.825 69.2734C23.1257 69.1289 23.3738 68.9395 23.5691 68.7051C23.7644 68.4707 23.8953 68.2148 23.9617 67.9375L24.2664 68.3418C24.2156 68.5371 24.1218 68.7383 23.9851 68.9453C23.8523 69.1484 23.6785 69.3398 23.4636 69.5195C23.2488 69.6953 22.9949 69.8398 22.7019 69.9531C22.4128 70.0625 22.0847 70.1172 21.7175 70.1172C21.3035 70.1172 20.9421 70.0391 20.6335 69.8828C20.3289 69.7266 20.0906 69.5137 19.9187 69.2441C19.7507 68.9707 19.6667 68.6621 19.6667 68.3184C19.6667 68.0059 19.7332 67.7266 19.866 67.4805C19.9988 67.2305 20.1902 67.0195 20.4402 66.8477C20.6941 66.6719 20.9988 66.5391 21.3542 66.4492C21.7136 66.3555 22.116 66.3086 22.5613 66.3086H24.0203ZM30.2312 68.3828C30.2312 68.2109 30.1882 68.041 30.1023 67.873C30.0164 67.7051 29.8503 67.5508 29.6042 67.4102C29.3621 67.2695 29.0046 67.1504 28.532 67.0527C28.1804 66.9746 27.866 66.8867 27.5886 66.7891C27.3152 66.6914 27.0847 66.5742 26.8972 66.4375C26.7097 66.3008 26.5671 66.1367 26.4695 65.9453C26.3718 65.7539 26.323 65.5273 26.323 65.2656C26.323 65.0312 26.3738 64.8105 26.4753 64.6035C26.5808 64.3926 26.7292 64.209 26.9207 64.0527C27.116 63.8926 27.3503 63.7676 27.6238 63.6777C27.9011 63.5879 28.2117 63.543 28.5554 63.543C29.0437 63.543 29.4617 63.627 29.8093 63.7949C30.1609 63.959 30.4285 64.1836 30.6121 64.4688C30.7996 64.7539 30.8933 65.0762 30.8933 65.4355H30.196C30.196 65.2168 30.1316 65.0098 30.0027 64.8145C29.8777 64.6191 29.6921 64.459 29.446 64.334C29.2039 64.209 28.907 64.1465 28.5554 64.1465C28.1921 64.1465 27.8972 64.2012 27.6707 64.3105C27.4441 64.4199 27.2781 64.5586 27.1726 64.7266C27.071 64.8945 27.0203 65.0684 27.0203 65.248C27.0203 65.3887 27.0417 65.5176 27.0847 65.6348C27.1316 65.748 27.2136 65.8535 27.3308 65.9512C27.4519 66.0488 27.6238 66.1406 27.8464 66.2266C28.0691 66.3125 28.3582 66.3965 28.7136 66.4785C29.2253 66.5918 29.6433 66.7305 29.9675 66.8945C30.2957 67.0547 30.5378 67.2539 30.6941 67.4922C30.8503 67.7266 30.9285 68.0117 30.9285 68.3477C30.9285 68.6094 30.8738 68.8496 30.7644 69.0684C30.655 69.2832 30.4968 69.4688 30.2898 69.625C30.0867 69.7812 29.8406 69.9023 29.5515 69.9883C29.2664 70.0742 28.946 70.1172 28.5906 70.1172C28.0554 70.1172 27.6023 70.0293 27.2312 69.8535C26.864 69.6738 26.5847 69.4395 26.3933 69.1504C26.2058 68.8574 26.1121 68.5469 26.1121 68.2188H26.8093C26.8328 68.5469 26.9363 68.8066 27.1199 68.998C27.3035 69.1855 27.5281 69.3184 27.7937 69.3965C28.0632 69.4746 28.3289 69.5137 28.5906 69.5137C28.95 69.5137 29.2507 69.4609 29.4929 69.3555C29.7351 69.25 29.9187 69.1113 30.0437 68.9395C30.1687 68.7676 30.2312 68.582 30.2312 68.3828ZM41.3582 68.834V70H35.4343V68.834H41.3582ZM41.2234 62.377L35.9792 70H34.9949V69.0684L40.2566 61.4688H41.2234V62.377ZM40.6785 61.4688V62.6406H35.03V61.4688H40.6785ZM46.0691 68.7285V65.7051C46.0691 65.4785 46.0281 65.2832 45.946 65.1191C45.864 64.9551 45.739 64.8281 45.571 64.7383C45.407 64.6484 45.2 64.6035 44.95 64.6035C44.7195 64.6035 44.5203 64.6426 44.3523 64.7207C44.1843 64.7988 44.0535 64.9043 43.9597 65.0371C43.866 65.1699 43.8191 65.3203 43.8191 65.4883H42.4128C42.4128 65.2383 42.4734 64.9961 42.5945 64.7617C42.7156 64.5273 42.8914 64.3184 43.1218 64.1348C43.3523 63.9512 43.6277 63.8066 43.948 63.7012C44.2683 63.5957 44.6277 63.543 45.0261 63.543C45.5027 63.543 45.9246 63.623 46.2917 63.7832C46.6628 63.9434 46.9539 64.1855 47.1648 64.5098C47.3796 64.8301 47.4871 65.2324 47.4871 65.7168V68.5352C47.4871 68.8242 47.5066 69.084 47.5457 69.3145C47.5886 69.541 47.6492 69.7383 47.7273 69.9062V70H46.28C46.2136 69.8477 46.1609 69.6543 46.1218 69.4199C46.0867 69.1816 46.0691 68.9512 46.0691 68.7285ZM46.2742 66.1445L46.2859 67.0176H45.2722C45.0105 67.0176 44.78 67.043 44.5808 67.0938C44.3816 67.1406 44.2156 67.2109 44.0828 67.3047C43.95 67.3984 43.8503 67.5117 43.7839 67.6445C43.7175 67.7773 43.6843 67.9277 43.6843 68.0957C43.6843 68.2637 43.7234 68.418 43.8015 68.5586C43.8796 68.6953 43.9929 68.8027 44.1414 68.8809C44.2937 68.959 44.4773 68.998 44.6921 68.998C44.9812 68.998 45.2332 68.9395 45.448 68.8223C45.6667 68.7012 45.8386 68.5547 45.9636 68.3828C46.0886 68.207 46.155 68.041 46.1628 67.8848L46.6199 68.5117C46.573 68.6719 46.4929 68.8438 46.3796 69.0273C46.2664 69.2109 46.1179 69.3867 45.9343 69.5547C45.7546 69.7188 45.5378 69.8535 45.2839 69.959C45.0339 70.0645 44.7449 70.1172 44.4167 70.1172C44.0027 70.1172 43.6335 70.0352 43.3093 69.8711C42.9851 69.7031 42.7312 69.4785 42.5476 69.1973C42.364 68.9121 42.2722 68.5898 42.2722 68.2305C42.2722 67.8945 42.3347 67.5977 42.4597 67.3398C42.5886 67.0781 42.7761 66.8594 43.0222 66.6836C43.2722 66.5078 43.5769 66.375 43.9363 66.2852C44.2957 66.1914 44.7058 66.1445 45.1667 66.1445H46.2742ZM53.0242 63.6602H54.3074V69.8242C54.3074 70.3945 54.1863 70.8789 53.9441 71.2773C53.7019 71.6758 53.364 71.9785 52.9304 72.1855C52.4968 72.3965 51.9949 72.502 51.4246 72.502C51.1824 72.502 50.9128 72.4668 50.616 72.3965C50.323 72.3262 50.0378 72.2129 49.7605 72.0566C49.4871 71.9043 49.2585 71.7031 49.075 71.4531L49.7371 70.6211C49.9636 70.8906 50.2136 71.0879 50.4871 71.2129C50.7605 71.3379 51.0476 71.4004 51.3484 71.4004C51.6726 71.4004 51.948 71.3398 52.1746 71.2188C52.405 71.1016 52.5828 70.9277 52.7078 70.6973C52.8328 70.4668 52.8953 70.1855 52.8953 69.8535V65.0957L53.0242 63.6602ZM48.7175 66.9004V66.7773C48.7175 66.2969 48.7761 65.8594 48.8933 65.4648C49.0105 65.0664 49.1785 64.7246 49.3972 64.4395C49.616 64.1504 49.8816 63.9297 50.1941 63.7773C50.5066 63.6211 50.8601 63.543 51.2546 63.543C51.6648 63.543 52.0144 63.6172 52.3035 63.7656C52.5964 63.9141 52.8406 64.127 53.0359 64.4043C53.2312 64.6777 53.3835 65.0059 53.4929 65.3887C53.6062 65.7676 53.6902 66.1895 53.7449 66.6543V67.0469C53.6941 67.5 53.6082 67.9141 53.4871 68.2891C53.366 68.6641 53.2058 68.9883 53.0066 69.2617C52.8074 69.5352 52.5613 69.7461 52.2683 69.8945C51.9792 70.043 51.6375 70.1172 51.2429 70.1172C50.8562 70.1172 50.5066 70.0371 50.1941 69.877C49.8855 69.7168 49.6199 69.4922 49.3972 69.2031C49.1785 68.9141 49.0105 68.5742 48.8933 68.1836C48.7761 67.7891 48.7175 67.3613 48.7175 66.9004ZM50.1296 66.7773V66.9004C50.1296 67.1895 50.157 67.459 50.2117 67.709C50.2703 67.959 50.3582 68.1797 50.4753 68.3711C50.5964 68.5586 50.7488 68.707 50.9324 68.8164C51.1199 68.9219 51.3406 68.9746 51.5945 68.9746C51.9265 68.9746 52.198 68.9043 52.4089 68.7637C52.6238 68.623 52.7878 68.4336 52.9011 68.1953C53.0183 67.9531 53.1003 67.6836 53.1472 67.3867V66.3262C53.1238 66.0957 53.075 65.8809 53.0007 65.6816C52.9304 65.4824 52.8347 65.3086 52.7136 65.1602C52.5925 65.0078 52.4402 64.8906 52.2566 64.8086C52.073 64.7227 51.8562 64.6797 51.6062 64.6797C51.3523 64.6797 51.1316 64.7344 50.9441 64.8438C50.7566 64.9531 50.6023 65.1035 50.4812 65.2949C50.364 65.4863 50.2761 65.709 50.2175 65.9629C50.1589 66.2168 50.1296 66.4883 50.1296 66.7773ZM55.5027 66.9004V66.7656C55.5027 66.3086 55.5691 65.8848 55.7019 65.4941C55.8347 65.0996 56.0261 64.7578 56.2761 64.4688C56.53 64.1758 56.8386 63.9492 57.2019 63.7891C57.5691 63.625 57.9832 63.543 58.4441 63.543C58.9089 63.543 59.323 63.625 59.6863 63.7891C60.0535 63.9492 60.364 64.1758 60.6179 64.4688C60.8718 64.7578 61.0652 65.0996 61.198 65.4941C61.3308 65.8848 61.3972 66.3086 61.3972 66.7656V66.9004C61.3972 67.3574 61.3308 67.7812 61.198 68.1719C61.0652 68.5625 60.8718 68.9043 60.6179 69.1973C60.364 69.4863 60.0554 69.7129 59.6921 69.877C59.3289 70.0371 58.9167 70.1172 58.4558 70.1172C57.991 70.1172 57.575 70.0371 57.2078 69.877C56.8445 69.7129 56.5359 69.4863 56.282 69.1973C56.0281 68.9043 55.8347 68.5625 55.7019 68.1719C55.5691 67.7812 55.5027 67.3574 55.5027 66.9004ZM56.9148 66.7656V66.9004C56.9148 67.1855 56.9441 67.4551 57.0027 67.709C57.0613 67.9629 57.1531 68.1855 57.2781 68.377C57.4031 68.5684 57.5632 68.7188 57.7585 68.8281C57.9539 68.9375 58.1863 68.9922 58.4558 68.9922C58.7175 68.9922 58.9441 68.9375 59.1355 68.8281C59.3308 68.7188 59.491 68.5684 59.616 68.377C59.741 68.1855 59.8328 67.9629 59.8914 67.709C59.9539 67.4551 59.9851 67.1855 59.9851 66.9004V66.7656C59.9851 66.4844 59.9539 66.2188 59.8914 65.9688C59.8328 65.7148 59.739 65.4902 59.6101 65.2949C59.4851 65.0996 59.325 64.9473 59.1296 64.8379C58.9382 64.7246 58.7097 64.668 58.4441 64.668C58.1785 64.668 57.948 64.7246 57.7527 64.8379C57.5613 64.9473 57.4031 65.0996 57.2781 65.2949C57.1531 65.4902 57.0613 65.7148 57.0027 65.9688C56.9441 66.2188 56.9148 66.4844 56.9148 66.7656Z" fill="#DDE2D6"/>
</svg>
